<?xml version="1.0" standalone="no"?>
<!DOCTYPE svg PUBLIC "-//W3C//DTD SVG 20010904//EN"
 "http://www.w3.org/TR/2001/REC-SVG-20010904/DTD/svg10.dtd">
<svg version="1.0" xmlns="http://www.w3.org/2000/svg"
 width="257.000000pt" height="257.000000pt" viewBox="0 0 257.000000 257.000000"
 preserveAspectRatio="xMidYMid meet">
<metadata>
Created by potrace 1.11, written by Peter Selinger 2001-2013
</metadata>
<g transform="translate(0.000000,257.000000) scale(0.100000,-0.100000)"
fill="#000000" stroke="none">
<path d="M1088 2500 c-122 -25 -180 -45 -278 -93 -305 -149 -503 -432 -526
-753 -8 -104 11 -167 67 -221 21 -21 39 -41 39 -44 0 -4 -11 -10 -25 -13 -26
-7 -28 -15 -26 -86 3 -58 12 -168 16 -192 3 -13 10 -50 16 -83 41 -225 176
-494 326 -650 217 -226 468 -309 756 -250 15 3 58 17 95 31 377 142 646 590
677 1127 5 94 4 97 -60 117 l-39 13 24 16 c41 26 90 81 106 119 31 76 10 250
-48 390 -121 291 -383 497 -728 572 -93 20 -293 20 -392 0z"/>
</g>
</svg>
